<?xml version="1.0" encoding="UTF-8" standalone="no"?>
<!DOCTYPE svg PUBLIC "-//W3C//DTD SVG 1.1//EN" "http://www.w3.org/Graphics/SVG/1.1/DTD/svg11.dtd">
<svg width="100%" height="100%" viewBox="0 0 1270 592" version="1.1" xmlns="http://www.w3.org/2000/svg" xmlns:xlink="http://www.w3.org/1999/xlink" xml:space="preserve" xmlns:serif="http://www.serif.com/" style="fill-rule:evenodd;clip-rule:evenodd;stroke-linejoin:round;stroke-miterlimit:2;">
    <g transform="matrix(1,0,0,1,-54.422434,-1.000002)">
        <path d="M198.531,1C199.955,1.667 200.826,2.712 201.878,2.947C227.753,8.737 248.282,22.052 260.339,46.152C263.873,53.216 265.053,61.511 266.904,69.339C267.708,72.742 266.087,75.025 262.056,75.023C207.608,74.988 153.159,75 98.128,75C97.508,66.105 99.291,57.731 102.7,49.863C113.5,24.943 133.118,10.6 158.957,3.984C161.559,3.318 164.102,2.424 166.336,1.318C176.688,1 187.375,1 198.531,1Z" style="fill:rgb(196,196,196);fill-rule:nonzero;"/>
        <path d="M1018.256,590.949C1017.517,589.171 1017.034,587.435 1017.033,585.697C1016.991,543.373 1017,501.049 1017,458.362L797.35,458.362C800.17,476.385 810.151,489.901 823.822,501.496C837.373,512.988 852.689,520.445 869.883,524.473C890.326,529.261 910.199,527.147 928.952,518.259C938.676,513.651 947.457,506.99 956.443,500.929C959.281,499.014 960.313,500.834 961.766,502.282C973.334,513.811 984.874,525.369 996.424,536.915C997.365,537.855 998.235,538.898 999.294,539.684C1004.075,543.232 1004.177,544.213 999.832,548.655C980.665,568.25 957.339,580.357 930.951,587.016C913.596,591.396 895.924,593.147 878.16,591.868C853.135,590.065 829.551,583.282 807.631,570.463C793.209,562.029 780.264,552.089 768.627,540.194C753.596,524.831 742.679,506.875 735.125,486.934C728.779,470.185 725.109,452.855 723.804,434.816C721.622,404.632 728.708,376.782 742.377,350.289C746.589,342.125 751.542,334.343 756.379,326L737.812,326C724.146,326 710.461,326.436 696.822,325.83C689.135,325.489 685.948,329.968 685.956,336.835C686.029,405.331 686,473.828 686,542.324L686,589.647L622,589.647L622,584.028C622,502.365 622.019,420.702 621.921,339.04C621.918,336.225 621.356,333.046 619.945,330.706C618.704,328.65 615.924,326.233 613.792,326.202C591.312,325.879 568.825,326.002 545.441,326.002C549.224,333.239 552.738,339.909 556.204,346.603C564.835,363.273 570.818,380.806 572.975,399.51C573.877,407.328 574.887,415.195 574.911,423.042C575.08,476.705 575,530.37 575,584.034L575,590L569.89,590C552.057,590 534.222,589.823 516.394,590.114C511.45,590.195 509.861,589.022 509.88,583.811C510.076,530.981 510.42,478.146 509.809,425.322C509.535,401.703 503.012,379.368 488.536,360.197C475.105,342.41 456.5,332.271 434.96,328.244C424.043,326.202 412.595,325.583 401.494,326.215C374.483,327.754 350.647,337.272 332.448,358.13C320.542,371.775 313.309,387.863 311.156,405.789C309.665,418.201 309.152,430.79 309.091,443.305C308.864,490.468 309,537.633 309,584.797L309,590.66C307.642,590.779 306.384,590.984 305.127,590.986C287.461,591.007 269.795,591.01 252.129,590.994C246.835,590.989 245.007,589.187 245.006,583.937C244.998,478.609 245.018,373.281 244.941,267.953C244.937,263.344 246.769,261.897 251.182,261.938C268.18,262.092 285.18,261.997 302.179,262.002C307.477,262.003 310.033,265.606 309.572,271.03C309.102,276.579 309.468,282.2 309.468,288.428C312.436,287.237 315.47,286.497 317.99,284.932C333.717,275.161 350.935,269.064 368.85,265.266C378.879,263.14 389.313,262.566 399.601,262.105C415.841,261.377 432.112,261.221 448.372,261.062C453.96,261.007 459.557,261.979 465.148,261.951C514.072,261.702 562.995,261.335 611.919,260.998C618.723,260.952 621.97,257.571 621.984,250.261C622.027,227.929 622,205.596 622,183.264L622,94.208L685.74,94.208L685.74,259.592C691.346,260.086 696.531,260.933 701.719,260.941C765.715,261.032 829.714,260.732 893.708,261.134C918.674,261.291 942.791,266.511 964.994,278.54C980.805,287.107 995.349,297.439 1007.419,310.949C1010.047,313.89 1012.61,316.89 1015.202,319.863C1015.726,319.539 1016.249,319.216 1016.773,318.892L1016.773,96L1022.728,96C1039.393,96 1056.059,95.993 1072.725,96.004C1077.894,96.008 1080.825,98.9 1080.995,104.119C1081.028,105.118 1081,106.119 1081,107.119L1081,381.353C1086.635,376.918 1091.683,373.058 1096.606,369.045C1104.084,362.951 1111.496,356.777 1118.897,350.591C1131.209,340.301 1143.526,330.016 1155.772,319.647C1163.415,313.175 1170.87,306.481 1178.519,300.015C1188.138,291.882 1197.872,283.884 1207.55,275.82C1211.955,272.149 1216.113,268.116 1220.836,264.916C1223.357,263.209 1226.837,262.141 1229.893,262.121C1260.702,261.922 1291.512,262 1323.995,262C1259.091,317.428 1195.244,371.955 1131.259,426.598C1194.612,480.83 1258.055,535.138 1322.552,590.348C1319.919,590.713 1318.884,590.981 1317.848,590.982C1288.183,591.004 1258.518,591.001 1228.853,590.999C1221.982,590.999 1217.643,586.086 1212.944,582.302C1200.449,572.24 1188.24,561.821 1175.989,551.459C1166.469,543.407 1157.11,535.165 1147.586,527.118C1135.456,516.869 1123.224,506.742 1111.052,496.544C1102.64,489.496 1094.264,482.405 1085.842,475.37C1084.879,474.566 1083.719,473.997 1082.156,473.006C1081.75,479.471 1081.073,485.451 1081.051,491.433C1080.939,521.264 1081.002,551.097 1080.999,580.928C1080.998,589.684 1079.713,591.001 1071.224,591C1053.727,590.997 1036.231,590.993 1018.256,590.949M797.207,394L982.009,394C978.767,379.655 972.026,367.848 962.223,357.732C948.416,343.485 931.723,334.186 912.586,329.288C896.326,325.126 879.887,324.158 863.688,329.191C844.513,335.148 827.671,345.24 814.263,360.356C805.778,369.924 798.828,380.49 797.207,394Z" style="fill:rgb(196,196,196);fill-rule:nonzero;"/>
        <path d="M151,298C151,288 150.983,278.501 151.007,269.002C151.019,264.021 152.908,262.019 157.691,262.011C174.357,261.983 191.023,262.012 207.689,261.992C212.005,261.986 214.011,264.096 214.01,268.382C213.991,375.376 213.987,482.37 213.974,589.364C213.974,589.685 213.874,590.005 213.764,590.662L151,590.662L151,298Z" style="fill:rgb(196,196,196);fill-rule:nonzero;"/>
        <path d="M146.772,148.323C134.172,143.136 123.39,135.951 114.584,126.034C106.822,117.292 101.783,107.163 99.575,95.231L132.533,95.231C129.444,103.67 131.103,112.692 136.533,116.869C142.7,121.613 151.897,122.447 157.595,118.78C165.282,113.833 167.4,106.622 164.415,95.197L199.063,95.197C195.454,104.003 196.956,111.774 204.264,117.57C210.473,122.495 219.393,122.517 225.663,117.607C233.039,111.83 234.575,104.058 230.904,95.168L266.31,95.168C263.034,102.721 260.903,110.077 256.961,116.284C242.956,138.337 222.044,149.885 196.645,154.01C179.617,156.776 163.125,154.705 146.772,148.323Z" style="fill:rgb(196,196,196);fill-rule:nonzero;"/>
        <path d="M259.343,170.988C254.53,168.174 251.369,164.077 253.328,159.082C254.563,155.933 258.154,153.07 261.38,151.498C265.617,149.433 273.485,154.86 272.817,159.468C271.541,168.258 278.596,171.404 283.054,176.292C283.706,177.006 286.217,176.706 287.473,176.082C300.05,169.831 315.154,178.155 316.913,194.217C317.011,195.12 316.118,196.131 315.636,197.203C312.462,193.719 309.585,190.562 306.989,187.712C300.801,193.792 295.549,198.953 290.005,204.401C293.188,207.417 296.626,210.675 300.972,214.792C291.995,215.481 285.168,213.719 280.461,207.739C274.454,200.106 274.364,191.603 279.445,182.091C276.039,178.953 272.44,175.54 268.702,172.285C268.059,171.725 266.84,171.771 265.873,171.65C263.833,171.396 261.784,171.217 259.343,170.988Z" style="fill:rgb(196,196,196);fill-rule:nonzero;"/>
        <path d="M101.977,171.55C98.035,175.401 94.349,178.966 90.679,182.516C95.898,191.057 95.673,199.327 90.402,206.908C85.743,213.609 78.583,215.643 70.454,214.843C74.297,211.289 78.015,207.849 81.688,204.453C75.655,198.397 70.502,193.223 64.528,187.225C61.684,190.809 58.837,194.399 55.533,198.565C53.011,191.511 54.951,183.659 59.673,179.918C67.718,173.542 76.325,171.343 85.797,178.196C88.218,175.604 90.418,173.111 92.767,170.767C95.51,168.029 97.981,165.727 97.223,160.903C96.422,155.806 102.963,150.103 107.717,151.099C114.297,152.477 118.039,157.179 116.959,164.396C116.19,169.536 110.135,172.763 104.642,171.227C103.9,171.02 103.039,171.241 101.977,171.55Z" style="fill:rgb(196,196,196);fill-rule:nonzero;"/>
        <path d="M223.264,208.243C212.821,215.822 203.252,213.71 198.716,203.32C197.464,200.454 197.527,197.988 200.192,196.457C205.382,193.475 208.187,189.05 209.212,183.363C216.549,181.727 222.32,184.014 225.741,190.565C228.917,196.647 227.88,202.627 223.264,208.243Z" style="fill:rgb(196,196,196);fill-rule:nonzero;"/>
        <path d="M163.793,201.515C160.867,209.808 154.419,213.409 145.538,211.987C140.435,211.17 134.398,203.74 134.031,197.825C133.599,190.845 142.148,181.698 149.067,182.149C150.457,182.24 152.296,183.905 152.947,185.301C155.109,189.943 157.536,194.131 162.183,196.84C163.249,197.462 163.391,199.668 163.793,201.515Z" style="fill:rgb(196,196,196);fill-rule:nonzero;"/>
        <path d="M71,94.082C71.678,85.191 77.033,75.858 83.08,76.283C81.829,91.3 85.696,105.255 92.749,118.485C81.569,119.263 71.596,109.746 71,94.082Z" style="fill:rgb(196,196,196);fill-rule:nonzero;"/>
        <path d="M283.976,101.741C284.954,93.046 285.912,84.769 286.863,76.553C294.081,78.105 298.129,86.692 296.976,99.682C296.177,108.678 285.828,119.182 276.976,118.562C279.322,113.048 281.639,107.603 283.976,101.741Z" style="fill:rgb(196,196,196);fill-rule:nonzero;"/>
        <path d="M195.046,180.792C188.455,189.864 181.482,191.474 173.538,186.126C168.607,182.806 166.734,177.35 168.241,172C174.65,172 180.842,172 187.034,172C187.864,172 188.697,172.048 189.523,171.991C197.186,171.462 197.719,172.258 195.046,180.792Z" style="fill:rgb(196,196,196);fill-rule:nonzero;"/>
    </g>
</svg>
